<?xml version="1.0" encoding="UTF-8" standalone="no"?>
<!DOCTYPE svg PUBLIC "-//W3C//DTD SVG 1.1//EN" "http://www.w3.org/Graphics/SVG/1.1/DTD/svg11.dtd">
<svg version="1.1" xmlns="http://www.w3.org/2000/svg" xmlns:xlink="http://www.w3.org/1999/xlink" preserveAspectRatio="xMidYMid meet" viewBox="0 0 640 640" width="640" height="640"><defs><path d="M60 80C26.86 80 0 106.86 0 140C0 176 0 464 0 500C0 533.14 26.86 560 60 560C112 560 528 560 580 560C613.14 560 640 533.14 640 500C640 464 640 176 640 140C640 106.86 613.14 80 580 80C476 80 112 80 60 80ZM580 191.01C551.97 213.83 507.29 249.32 411.77 324.12C390.72 340.68 349.02 380.46 320 380C290.99 380.46 249.28 340.67 228.23 324.12C132.73 249.33 88.03 213.83 60 191.01C60 187.61 60 170.6 60 140L580 140C580 170.6 580 187.61 580 191.01ZM60 268C88.64 290.81 129.26 322.83 191.17 371.3C218.49 392.81 266.34 440.29 320 440C373.4 440.29 420.64 393.5 448.82 371.31C510.73 322.84 551.36 290.81 580 268C580 283.47 580 360.8 580 500L60 500C60 360.8 60 283.46 60 268Z" id="a27ohFZpwS"></path></defs><g><g><g><use xlink:href="#a27ohFZpwS" opacity="1" fill="#ffffff" fill-opacity="1"></use><g><use xlink:href="#a27ohFZpwS" opacity="1" fill-opacity="0" stroke="#000000" stroke-width="1" stroke-opacity="0"></use></g></g></g></g></svg>