<?xml version="1.0" encoding="UTF-8" standalone="no"?>
<!DOCTYPE svg PUBLIC "-//W3C//DTD SVG 1.1//EN" "http://www.w3.org/Graphics/SVG/1.1/DTD/svg11.dtd">
<svg version="1.1" xmlns="http://www.w3.org/2000/svg" xmlns:xlink="http://www.w3.org/1999/xlink" preserveAspectRatio="xMidYMid meet" viewBox="0 0 640 640" width="640" height="640"><defs><path d="M140 300C140 322.13 157.88 340 180 340C202.13 340 220 322.13 220 300C220 277.88 202.13 260 180 260C157.88 260 140 277.88 140 300ZM280 300C280 322.13 297.88 340 320 340C342.13 340 360 322.13 360 300C360 277.88 342.13 260 320 260C297.88 260 280 277.88 280 300ZM420 300C420 322.13 437.88 340 460 340C482.13 340 500 322.13 500 300C500 277.88 482.13 260 460 260C437.88 260 420 277.88 420 300ZM0 300C0 359.5 24.88 414 66.13 457.88C47.5 507.13 8.75 548.88 8.13 549.38C-0.12 558.13 -2.38 570.88 2.38 581.88C7.13 592.88 18 600 30 600C106.88 600 167.5 567.88 203.88 542.13C240 553.5 279 560 320 560C496.75 560 640 443.63 640 300C640 156.38 496.75 40 320 40C143.25 40 0 156.38 0 300ZM222 484.88C220.11 484.28 210.65 481.28 193.63 475.88C179 486.23 170.88 491.98 169.25 493.13C151.38 505.75 126.88 519.88 97.38 529.38C106.5 514.25 115.38 497.25 122.25 479.13C123.13 476.78 127.55 465.08 135.5 444C120.05 427.65 111.47 418.57 109.75 416.75C87.13 392.63 60 352.75 60 300C60 189.75 176.63 100 320 100C463.38 100 580 189.75 580 300C580 410.25 463.38 500 320 500C286.63 500 253.63 494.88 222 484.88Z" id="a2A2YJiQtI"></path></defs><g><g><g><use xlink:href="#a2A2YJiQtI" opacity="1" fill="#ffffff" fill-opacity="1"></use><g><use xlink:href="#a2A2YJiQtI" opacity="1" fill-opacity="0" stroke="#000000" stroke-width="1" stroke-opacity="0"></use></g></g></g></g></svg>