<?xml version="1.0" encoding="UTF-8" standalone="no"?>
<!DOCTYPE svg PUBLIC "-//W3C//DTD SVG 1.1//EN" "http://www.w3.org/Graphics/SVG/1.1/DTD/svg11.dtd">
<svg version="1.1" xmlns="http://www.w3.org/2000/svg" xmlns:xlink="http://www.w3.org/1999/xlink" preserveAspectRatio="xMidYMid meet" viewBox="0 0 640 640" width="640" height="640"><defs><path d="M486.75 0.75C472.62 -2.5 458.13 4.88 452.38 18.13C446.38 32.13 398.38 144.13 392.38 158.13C387.13 170.38 390.63 184.75 401 193.13C408.57 199.33 469.18 248.93 476.75 255.13C431.75 351 353.13 430.75 255.25 476.62C249.05 469.05 199.45 408.45 193.25 400.87C184.75 390.5 170.5 387 158.25 392.25C144.25 398.25 32.25 446.25 18.25 452.25C4.88 458.13 -2.5 472.63 0.75 486.75C3.75 499.75 27.75 603.75 30.75 616.75C33.88 630.25 45.88 640 60 640C380.13 640 640 380.63 640 60C640 46 630.38 33.88 616.75 30.75C590.75 24.75 499.75 3.75 486.75 0.75Z" id="b1zNEbXV03"></path></defs><g><g><g><use xlink:href="#b1zNEbXV03" opacity="1" fill="#ffffff" fill-opacity="1"></use><g><use xlink:href="#b1zNEbXV03" opacity="1" fill-opacity="0" stroke="#000000" stroke-width="1" stroke-opacity="0"></use></g></g></g></g></svg>